<?xml version="1.0" encoding="UTF-8"?>
<svg xmlns="http://www.w3.org/2000/svg" version="1.1" viewBox="0 0 190 190">
  <defs>
    <style>
      .cls-1 {
        fill: #f9f9f9;
        isolation: isolate;
      }
    </style>
  </defs>
  <!-- Generator: Adobe Illustrator 28.7.1, SVG Export Plug-In . SVG Version: 1.2.0 Build 142)  -->
  <g>
    <g id="_圖層_1" data-name="圖層_1">
      <g id="_圖層_1-2" data-name="_圖層_1">
        <g>
          <path class="cls-1" d="M159.4,100.2h-34.2c-5.7.5-10.9,2.8-15.2,6.3.4.4.8.9,1.2,1.3,7.5,8.4,11.7,19.2,11.7,30.6s0,3.7-.4,5.3h38.7c13.4,0,23.7-.7,23.7-15s-11.2-27.2-25.6-28.6h.1Z"/>
          <path class="cls-1" d="M142.3,95.9c13.4,0,24.3-11.1,24.3-24.8s-10.9-24.8-24.3-24.8-24.3,11.1-24.3,24.8,10.9,24.8,24.3,24.8Z"/>
          <path class="cls-1" d="M47,93.3c3.9,1.8,8.3,2.8,12.8,2.8s8.9-1,12.8-2.8c10.9-5,18.5-16.1,18.5-29s-14-31.9-31.3-31.9-31.3,14.3-31.3,31.9,7.6,24.1,18.5,29h0Z"/>
          <path class="cls-1" d="M81.9,101.6h-44c-18.4,1.7-32.9,17.5-32.9,36.7s13.2,19.3,30.4,19.3,3.8,0,5.8,0h43.1c15.5,0,27.7-.7,30-14.2.3-1.5.4-3.2.4-5.1,0-10-3.9-19.1-10.3-25.7-5.9-6.1-13.8-10.2-22.6-11h0Z"/>
        </g>
      </g>
    </g>
  </g>
</svg>