<?xml version="1.0" encoding="UTF-8"?>
<svg xmlns="http://www.w3.org/2000/svg" version="1.1" viewBox="0 0 190 190">
  <defs>
    <style>
      .cls-1 {
        fill: #f9f9f9;
        fill-rule: evenodd;
        isolation: isolate;
      }
    </style>
  </defs>
  <!-- Generator: Adobe Illustrator 28.7.1, SVG Export Plug-In . SVG Version: 1.2.0 Build 142)  -->
  <g>
    <g id="_圖層_1" data-name="圖層_1">
      <g id="_圖層_1-2" data-name="_圖層_1">
        <path class="cls-1" d="M89.5,6.9c3.3-2.5,7.8-2.5,11.1,0l14.9,11.7,18.8-2.6c4.1-.6,8.1,1.7,9.6,5.5l7.1,17.6,17.6,7.1c3.8,1.5,6.1,5.5,5.5,9.6l-2.6,18.8,11.7,14.9c2.5,3.3,2.5,7.8,0,11.1l-11.7,14.9,2.6,18.8c.6,4.1-1.7,8.1-5.5,9.6l-17.6,7.1-7.1,17.6c-1.5,3.8-5.5,6.1-9.6,5.5l-18.8-2.6-14.9,11.7c-3.3,2.5-7.8,2.5-11.1,0l-14.9-11.7-18.8,2.6c-4.1.6-8.1-1.7-9.6-5.5l-7.1-17.6-17.6-7.1c-3.8-1.5-6.1-5.5-5.5-9.6l2.6-18.8-11.7-14.9c-2.5-3.3-2.5-7.8,0-11.1l11.7-14.9-2.6-18.8c-.6-4.1,1.7-8.1,5.5-9.6l17.6-7.1,7.1-17.6c1.5-3.8,5.5-6.1,9.6-5.5l18.8,2.6,14.9-11.7h0ZM128.4,83.4c3.5-3.5,3.5-9.2,0-12.7s-9.2-3.5-12.7,0l-29.6,29.6-11.6-11.6c-3.5-3.5-9.2-3.5-12.7,0-3.5,3.5-3.5,9.2,0,12.7l18,18c3.5,3.5,9.2,3.5,12.7,0l36-36h-.1Z"/>
      </g>
    </g>
  </g>
</svg>