<svg width="42" height="42" viewBox="0 0 42 42" fill="none" xmlns="http://www.w3.org/2000/svg">
<path d="M28.4648 22.9885C34.5713 22.9885 39.5391 18.0215 39.5391 11.9142C39.5391 5.80702 34.5713 0.840027 28.4648 0.840027C22.3584 0.840027 17.3906 5.80784 17.3906 11.9142C17.3906 18.0207 22.3584 22.9885 28.4648 22.9885ZM28.4648 13.1447C26.4296 13.1447 24.7734 11.4885 24.7734 9.45331C24.7734 7.9669 25.6577 6.63225 27.026 6.05311C27.0933 6.0244 27.1655 6.02604 27.2344 6.00143V4.53143C27.2344 3.85139 27.7848 3.30096 28.4648 3.30096C29.1449 3.30096 29.6953 3.85139 29.6953 4.53143V6.00389C30.3327 6.21882 30.9537 6.56089 31.509 7.09819C31.9971 7.57069 32.0086 8.34917 31.5353 8.83807C31.0628 9.32616 30.2827 9.33682 29.7954 8.86432C29.1974 8.28354 28.5313 8.08585 27.9866 8.31882C27.5305 8.51241 27.2344 8.95702 27.2344 9.45331C27.2344 10.1325 27.7856 10.6838 28.4648 10.6838C30.5 10.6838 32.1562 12.34 32.1562 14.3752C32.1562 15.9215 31.1809 17.3152 29.7273 17.8443C29.7166 17.8484 29.7052 17.8467 29.6953 17.85V19.2971C29.6953 19.9771 29.1449 20.5275 28.4648 20.5275C27.7848 20.5275 27.2344 19.9771 27.2344 19.2971V17.8418C26.4239 17.5678 25.6479 17.0486 24.9834 16.257C24.5462 15.7369 24.6135 14.9601 25.1352 14.5245C25.6553 14.0881 26.4338 14.1553 26.8677 14.6762C27.519 15.449 28.2581 15.7599 28.8857 15.5326C29.3696 15.3563 29.6953 14.8912 29.6953 14.3752C29.6953 13.696 29.1441 13.1447 28.4648 13.1447Z" fill="#F9F9F9"/>
<path d="M1.23047 40.215H4.92188V25.4494H1.23047C0.55043 25.4494 0 25.9998 0 26.6799V38.9846C0 39.6646 0.55043 40.215 1.23047 40.215Z" fill="#F9F9F9"/>
<path d="M36.3645 24.2189L29.5969 31.6756C29.3442 31.8249 28.6707 32.6714 27.2344 32.8322H18.5227C17.8336 32.8322 17.2922 32.2908 17.2922 31.6017C17.2922 30.9127 17.8336 30.3713 18.5227 30.3713H25.7964C26.5954 30.3713 27.2409 29.6051 26.9932 28.8455C26.3509 26.8734 24.4978 25.4494 22.3125 25.4494H19.0887L18.3217 24.7833C16.6753 23.3535 14.5835 22.4413 12.4031 22.4733C10.5943 22.4995 8.78801 23.1115 7.38281 24.1074V40.215H26.784C27.7946 40.215 28.7528 39.8065 29.4451 39.0707C32.6583 35.659 41.7531 25.8029 41.7531 25.597C42.1583 25.1344 42.0386 24.4625 41.5808 24.0466C40.1141 22.6841 37.8033 22.7309 36.3636 24.2189H36.3645Z" fill="#F9F9F9"/>
</svg>
