<?xml version="1.0" encoding="UTF-8"?>
<svg xmlns="http://www.w3.org/2000/svg" version="1.1" viewBox="0 0 43 42">
  <defs>
    <style>
      .cls-1 {
        fill: #f9f9f9;
      }
    </style>
  </defs>
  <!-- Generator: Adobe Illustrator 28.7.1, SVG Export Plug-In . SVG Version: 1.2.0 Build 142)  -->
  <g>
    <g id="_圖層_1" data-name="圖層_1">
      <path class="cls-1" d="M14.6,23.1l-.5-.5c-.6-.6-1.5-.6-2.1,0h0l-3.2,3.2c-.6.6-.6,1.5,0,2.1l.5.5c.6.6,1.5.6,2.1,0h0l3.2-3.2c.6-.6.6-1.5,0-2.1h0Z"/>
      <path class="cls-1" d="M16.7,35.9c.6.6,1.5.6,2.1,0h0l3.2-3.2h0c.6-.6.6-1.5,0-2.1l-.5-.5c-.6-.6-1.5-.6-2.1,0l-3.2,3.2c-.6.6-.6,1.5,0,2.1l.5.5h0Z"/>
      <path class="cls-1" d="M20.4,39.6c.6.6,1.5.6,2.1,0h0l3.2-3.2c.6-.6.6-1.5,0-2.1l-.5-.5c-.3-.3-.7-.4-1.1-.4s-.8.2-1.1.4l-3.2,3.2c-.6.6-.6,1.5,0,2.1l.5.5h.1Z"/>
      <path class="cls-1" d="M14.1,32.6c.4,0,.8-.2,1.1-.4l3.2-3.2c.6-.6.6-1.5,0-2.1l-.5-.5c-.6-.6-1.5-.6-2.1,0h0l-3.2,3.2c-.6.6-.6,1.5,0,2.1l.5.5c.3.3.7.4,1.1.4h-.1Z"/>
      <path class="cls-1" d="M25.7,17.2l8.5,8.5c.6.6,1.5.6,2.1,0l.5-.5c.6-.6.6-1.5,0-2.1l-11.7-11.7c-.3-.3-.8-.3-1.1,0l-5.8,5.9c-1.7,1.8-4.6,1.8-6.4,0h0c-.9-.9-.9-2.3,0-3.2l8.5-8.5C15.7,1.3,8.5,1.5,4,6-.7,10.8-.7,18.4,4,23.1l2.9,3c0-.5.4-1,.8-1.4l3.2-3.2c1.2-1.2,3.1-1.2,4.2,0h0l.5.5c.6.6.9,1.5.9,2.4.9,0,1.7.2,2.3.8l.5.5c.6.6.9,1.5.9,2.3h.2c.8,0,1.6.3,2.1.9l.5.5c.6.6.9,1.5.9,2.4.9,0,1.7.2,2.3.8l.5.5h0c.6.6,1.5.6,2.1,0h0l.5-.5c.6-.6.6-1.5,0-2.1l-8.5-8.5c-.3-.3-.3-.8,0-1.1.3-.3.8-.3,1.1,0l8.5,8.5c.6.6,1.5.6,2.1,0l.5-.5c.6-.6.6-1.5,0-2.1l-8.5-8.5c-.3-.3-.3-.8,0-1.1.3-.3.8-.3,1.1,0h.1Z"/>
      <path class="cls-1" d="M38.7,23.4l.3-.3c4.7-4.7,4.7-12.3,0-17s-12.2-4.7-16.9,0h0l-9,9c-.3.3-.3.8,0,1.1,1.2,1.1,3.1,1.1,4.2,0l5.8-5.9c.9-.9,2.3-.9,3.2,0l11.7,11.7c.4.4.6.8.8,1.4h0Z"/>
    </g>
  </g>
</svg>