<svg width="42" height="42" viewBox="0 0 42 42" fill="none" xmlns="http://www.w3.org/2000/svg">
<path d="M21 15.54C14.383 15.54 9 20.0617 9 25.62C9 31.1783 14.383 35.7 21 35.7C27.617 35.7 33 31.1783 33 25.62C33 20.0617 27.617 15.54 21 15.54ZM26.111 24.7472L21.011 29.0312C20.425 29.5235 19.476 29.5235 18.89 29.0312L15.89 26.5112C15.304 26.019 15.304 25.221 15.89 24.7296C16.476 24.2382 17.425 24.2373 18.011 24.7296L19.95 26.3583L23.989 22.9656C24.575 22.4733 25.525 22.4733 26.11 22.9656C26.696 23.4578 26.696 24.2558 26.11 24.7472H26.111Z" fill="#F9F9F9"/>
<path d="M38.1607 11.507C37.7473 9.38498 36.3844 7.56725 34.454 6.56874C33.8108 3.2738 30.9128 0.840027 27.4845 0.840027H14.5155C11.0872 0.840027 8.18918 3.27463 7.546 6.56874C5.61647 7.56725 4.25271 9.38416 3.83929 11.507C1.56059 12.6898 0 15.0676 0 17.8049V33.2251C0 37.137 3.18624 40.32 7.10377 40.32H34.8962C38.8129 40.32 42 37.137 42 33.2251V17.8049C42 15.0676 40.4394 12.6898 38.1607 11.507ZM14.5155 3.30753H27.4845C29.2369 3.30753 30.7975 4.31262 31.5824 5.78654C31.4522 5.77914 31.3221 5.77503 31.1904 5.77503H10.8096C10.6787 5.77503 10.5478 5.77996 10.4185 5.78654C11.2025 4.31262 12.7631 3.30753 14.5155 3.30753ZM10.8096 8.24253H31.1904C32.9428 8.24253 34.5034 9.24762 35.2874 10.7215C35.1581 10.7141 35.0272 10.71 34.8962 10.71H7.10377C6.97282 10.71 6.84188 10.7141 6.71259 10.7215C7.49659 9.24762 9.05718 8.24253 10.8096 8.24253ZM39.5294 33.2251C39.5294 35.7765 37.4508 37.8525 34.8962 37.8525H7.10377C4.54918 37.8525 2.47059 35.7765 2.47059 33.2251V17.8049C2.47059 15.2535 4.54918 13.1775 7.10377 13.1775H34.8962C37.4508 13.1775 39.5294 15.2535 39.5294 17.8049V33.2251Z" fill="#F9F9F9"/>
</svg>
